<svg data-v-fde0c5aa="" xmlns="http://www.w3.org/2000/svg" viewBox="0 0 300 300" class="iconAbove"><!----><defs data-v-fde0c5aa=""><!----></defs><rect data-v-fde0c5aa="" fill="#FDEDDF" x="0" y="0" width="300px" height="300px" class="logo-background-square"></rect><defs data-v-fde0c5aa=""><!----></defs><g data-v-fde0c5aa="" id="1b474fe4-a5aa-4107-9a67-77c35180b93a" fill="#361A02" transform="matrix(1.801302525956539,0,0,1.801302525956539,19.621726454517916,165.3225718489289)"><path d="M3.41 4.25L3.41 4.25L4.76 4.24L4.76 4.24Q5.91 4.24 6.47 4.57L6.47 4.57L6.47 4.57Q7.19 5.00 7.19 6.06L7.19 6.06L7.19 6.06Q7.19 7.04 6.06 7.87L6.06 7.87L6.06 7.87Q5.74 8.09 5.45 8.30L5.45 8.30L5.45 8.30Q7.10 8.48 7.63 9.65L7.63 9.65L7.63 9.65Q7.82 10.06 7.82 10.53L7.82 10.53L7.82 10.53Q7.82 11.00 7.65 11.38L7.65 11.38L7.65 11.38Q7.47 11.75 7.18 12.10L7.18 12.10L7.18 12.10Q6.89 12.44 6.52 12.75L6.52 12.75L6.52 12.75Q6.15 13.06 5.75 13.30L5.75 13.30L5.75 13.30Q4.66 13.97 3.83 14.03L3.83 14.03L3.83 14.03Q3.24 14.08 2.79 14.08L2.79 14.08L1.25 14.08L1.25 14.08Q1.55 13.66 1.61 13.47L1.61 13.47L1.61 13.47Q1.71 13.18 1.71 12.67L1.71 12.67L1.71 5.17L0.21 5.17L0.21 5.17Q1.29 4.25 1.53 4.25L1.53 4.25L1.53 4.25Q2.47 4.25 3.41 4.25ZM3.04 5.14L3.04 8.31L3.04 8.31Q3.47 8.29 4.11 8.29L4.11 8.29L4.11 8.29Q4.75 8.29 5.04 8.31L5.04 8.31L5.04 8.31Q5.72 8.09 5.84 7.49L5.84 7.49L5.84 7.49Q5.87 7.28 5.87 7.01L5.87 7.01L5.87 7.01Q5.87 5.13 3.51 5.13L3.51 5.13L3.51 5.13Q3.27 5.13 3.04 5.14L3.04 5.14ZM3.04 9.21L3.04 11.71L3.04 11.71Q3.04 12.50 2.60 13.15L2.60 13.15L4.50 13.15L4.50 13.15Q5.30 13.15 5.69 12.93L5.69 12.93L5.69 12.93Q6.07 12.71 6.27 12.39L6.27 12.39L6.27 12.39Q6.47 12.07 6.47 11.55L6.47 11.55L6.47 11.55Q6.47 11.02 6.32 10.64L6.32 10.64L6.32 10.64Q6.18 10.27 5.93 10.01L5.93 10.01L5.93 10.01Q5.69 9.75 5.35 9.59L5.35 9.59L5.35 9.59Q5.02 9.43 4.63 9.35L4.63 9.35L4.63 9.35Q4.01 9.21 3.04 9.21L3.04 9.21ZM13.39 9.28L13.39 12.06L13.38 12.54L13.38 12.54Q13.38 13.07 13.68 13.21L13.68 13.21L13.68 13.21Q13.79 13.27 13.95 13.27L13.95 13.27L13.95 13.27Q14.18 13.27 14.44 13.16L14.44 13.16L14.44 13.16Q14.18 13.27 13.99 13.45L13.99 13.45L13.99 13.45Q13.79 13.62 13.60 13.79L13.60 13.79L13.60 13.79Q13.10 14.21 12.61 14.21L12.61 14.21L12.61 14.21Q12.11 14.21 12.07 13.63L12.07 13.63L12.07 13.63Q12.06 13.48 12.06 13.33L12.06 13.33L12.06 13.33Q10.83 14.18 9.80 14.18L9.80 14.18L9.80 14.18Q8.93 14.18 8.60 13.66L8.60 13.66L8.60 13.66Q8.48 13.47 8.48 13.13L8.48 13.13L8.48 13.13Q8.48 12.80 8.68 12.46L8.68 12.46L8.68 12.46Q8.89 12.12 9.20 11.84L9.20 11.84L9.20 11.84Q9.76 11.32 10.55 10.99L10.55 10.99L10.55 10.99Q11.14 10.73 12.07 10.70L12.07 10.70L12.07 10.40L12.07 10.40Q12.07 9.31 11.87 8.93L11.87 8.93L11.87 8.93Q11.67 8.54 11.35 8.36L11.35 8.36L11.35 8.36Q11.04 8.18 10.62 8.18L10.62 8.18L10.62 8.18Q9.90 8.18 9.35 8.46L9.35 8.46L9.35 8.46Q10.10 7.84 10.45 7.64L10.45 7.64L10.45 7.64Q11.17 7.24 11.75 7.24L11.75 7.24L11.75 7.24Q12.34 7.24 12.63 7.41L12.63 7.41L12.63 7.41Q12.93 7.58 13.10 7.86L13.10 7.86L13.10 7.86Q13.39 8.35 13.39 9.28L13.39 9.28ZM10.18 13.04L10.18 13.04L10.18 13.04Q10.34 13.16 10.56 13.21L10.56 13.21L10.56 13.21Q10.78 13.27 11.21 13.27L11.21 13.27L11.21 13.27Q11.64 13.27 12.07 13.06L12.07 13.06L12.07 11.63L10.96 11.63L10.96 11.63Q10.36 11.63 9.92 11.71L9.92 11.71L9.92 11.71Q9.83 12.00 9.83 12.27L9.83 12.27L9.83 12.27Q9.83 12.54 9.92 12.73L9.92 12.73L9.92 12.73Q10.01 12.92 10.18 13.04ZM15.81 8.16L14.92 8.16L15.81 7.46L15.81 6.49L15.81 6.49Q16.18 6.23 16.34 6.09L16.34 6.09L16.34 6.09Q16.50 5.95 16.60 5.89L16.60 5.89L16.60 5.89Q16.71 5.83 16.83 5.76L16.83 5.76L16.83 5.76Q17.12 5.59 17.14 5.56L17.14 5.56L17.14 7.23L19.33 7.23L19.33 7.23Q19.24 7.23 18.88 7.55L18.88 7.55L18.88 7.55Q18.19 8.16 18.01 8.16L18.01 8.16L17.14 8.16L17.14 11.82L17.14 11.82Q17.14 13.08 17.87 13.28L17.87 13.28L17.87 13.28Q18.09 13.33 18.28 13.33L18.28 13.33L18.28 13.33Q18.59 13.33 18.81 13.24L18.81 13.24L18.81 13.24Q19.03 13.15 19.17 13.07L19.17 13.07L19.17 13.07Q18.76 13.71 18.01 14.04L18.01 14.04L18.01 14.04Q17.62 14.21 17.17 14.21L17.17 14.21L17.17 14.21Q16.72 14.21 16.47 14.05L16.47 14.05L16.47 14.05Q16.23 13.90 16.08 13.64L16.08 13.64L16.08 13.64Q15.81 13.18 15.81 12.41L15.81 12.41L15.81 8.16ZM25.46 8.22L25.31 8.22L25.31 8.22Q24.49 9.37 23.63 10.40L23.63 10.40L23.63 10.40Q24.05 11.04 24.46 11.70L24.46 11.70L24.46 11.70Q24.88 12.36 25.17 12.71L25.17 12.71L25.17 12.71Q25.46 13.07 25.62 13.19L25.62 13.19L25.62 13.19Q25.79 13.31 25.92 13.31L25.92 13.31L25.92 13.31Q26.15 13.31 26.42 13.10L26.42 13.10L26.42 13.10Q26.20 13.60 25.66 13.92L25.66 13.92L25.66 13.92Q25.17 14.21 24.60 14.21L24.60 14.21L24.60 14.21Q24.30 14.21 24.08 13.93L24.08 13.93L24.08 13.93Q23.65 13.41 23.28 12.83L23.28 12.83L23.28 12.83Q22.91 12.26 22.54 11.69L22.54 11.69L22.54 11.69Q21.85 12.47 20.95 13.15L20.95 13.15L22.11 13.15L22.11 13.15Q22.00 13.18 21.68 13.47L21.68 13.47L21.68 13.47Q21.36 13.75 21.23 13.85L21.23 13.85L21.23 13.85Q20.94 14.08 20.79 14.08L20.79 14.08L19.20 14.08L19.20 14.08Q19.29 14.02 19.38 13.96L19.38 13.96L19.38 13.96Q19.47 13.90 19.56 13.83L19.56 13.83L19.56 13.83Q19.66 13.75 19.77 13.64L19.77 13.64L19.77 13.64Q19.89 13.52 20.00 13.41L20.00 13.41L20.00 13.41Q20.28 13.15 20.53 13.15L20.53 13.15L20.53 13.15Q20.63 13.15 21.12 12.63L21.12 12.63L21.12 12.63Q21.60 12.10 21.79 11.90L21.79 11.90L21.79 11.90Q21.97 11.70 22.11 11.54L22.11 11.54L22.11 11.54Q22.25 11.38 22.30 11.32L22.30 11.32L22.30 11.32Q21.97 10.81 21.65 10.31L21.65 10.31L21.65 10.31Q21.32 9.82 21.11 9.50L21.11 9.50L21.11 9.50Q20.90 9.17 20.79 8.97L20.79 8.97L20.79 8.97Q20.68 8.77 20.54 8.59L20.54 8.59L20.54 8.59Q20.19 8.13 19.89 8.13L19.89 8.13L19.89 8.13Q19.68 8.13 19.50 8.26L19.50 8.26L19.50 8.26Q20.88 7.19 21.28 7.19L21.28 7.19L21.28 7.19Q21.46 7.19 21.65 7.43L21.65 7.43L21.65 7.43Q21.85 7.68 22.03 7.94L22.03 7.94L22.03 7.94Q22.22 8.20 22.42 8.51L22.42 8.51L22.42 8.51Q22.62 8.82 22.80 9.11L22.80 9.11L22.80 9.11Q22.99 9.39 23.14 9.63L23.14 9.63L23.14 9.63Q23.28 9.86 23.36 9.98L23.36 9.98L23.36 9.98Q24.05 9.07 24.62 8.22L24.62 8.22L23.63 8.22L23.63 8.22Q24.34 7.62 24.62 7.45L24.62 7.45L24.62 7.45Q24.91 7.29 24.96 7.29L24.96 7.29L26.79 7.29L26.79 7.29Q26.10 7.89 25.80 8.06L25.80 8.06L25.80 8.06Q25.50 8.22 25.46 8.22L25.46 8.22ZM27.93 3.41L29.26 2.48L29.30 3.26L29.30 3.62L29.30 3.62Q29.30 3.94 29.22 4.02L29.22 4.02L29.22 4.02Q29.13 4.09 29.04 4.16L29.04 4.16L29.04 4.16Q28.66 4.43 27.93 4.89L27.93 4.89L27.93 4.89Q27.97 4.21 27.97 4.19L27.97 4.19L27.97 4.19Q27.97 4.16 27.93 3.41L27.93 3.41ZM30.69 13.24L30.69 13.24L30.69 13.24Q30.48 13.41 30.29 13.58L30.29 13.58L30.29 13.58Q30.09 13.75 29.88 13.89L29.88 13.89L29.88 13.89Q29.39 14.21 28.94 14.21L28.94 14.21L28.94 14.21Q28.51 14.21 28.34 14.08L28.34 14.08L28.34 14.08Q27.99 13.82 27.99 13.13L27.99 13.13L27.99 9.88L27.99 9.88Q27.99 9.15 27.73 8.93L27.73 8.93L27.73 8.93Q27.60 8.83 27.46 8.83L27.46 8.83L27.46 8.83Q27.32 8.83 27.22 8.84L27.22 8.84L27.22 8.84Q27.12 8.86 27.02 8.88L27.02 8.88L27.02 8.88Q26.91 8.90 26.80 8.92L26.80 8.92L26.80 8.92Q27.15 8.65 27.44 8.44L27.44 8.44L27.44 8.44Q27.74 8.23 27.95 8.09L27.95 8.09L27.95 8.09Q28.16 7.94 28.54 7.68L28.54 7.68L28.54 7.68Q28.92 7.42 29.32 7.21L29.32 7.21L29.32 12.03L29.32 12.03Q29.32 12.73 29.41 12.91L29.41 12.91L29.41 12.91Q29.60 13.29 30.26 13.29L30.26 13.29L30.26 13.29Q30.43 13.29 30.69 13.24ZM34.47 13.23L34.47 13.23L34.47 13.23Q34.24 13.41 34.04 13.59L34.04 13.59L34.04 13.59Q33.83 13.77 33.61 13.90L33.61 13.90L33.61 13.90Q33.13 14.22 32.61 14.22L32.61 14.22L32.61 14.22Q31.86 14.22 31.79 13.18L31.79 13.18L31.79 13.18Q31.77 12.90 31.77 12.63L31.77 12.63L31.77 5.32L31.77 5.32Q31.77 4.38 31.35 4.10L31.35 4.10L31.35 4.10Q31.17 3.98 31.01 3.98L31.01 3.98L31.01 3.98Q30.79 3.98 30.71 3.99L30.71 3.99L30.71 3.99Q30.64 4.00 30.58 4.01L30.58 4.01L30.58 4.01Q31.57 3.32 31.83 3.19L31.83 3.19L31.83 3.19Q32.17 3.00 32.54 2.82L32.54 2.82L32.54 2.82Q32.90 2.64 33.10 2.54L33.10 2.54L33.10 11.97L33.10 11.97Q33.10 12.25 33.10 12.49L33.10 12.49L33.10 12.49Q33.11 12.73 33.18 12.91L33.18 12.91L33.18 12.91Q33.35 13.28 34.04 13.28L34.04 13.28L34.04 13.28Q34.26 13.28 34.47 13.23ZM38.24 13.23L38.24 13.23L38.24 13.23Q38.01 13.41 37.81 13.59L37.81 13.59L37.81 13.59Q37.60 13.77 37.39 13.90L37.39 13.90L37.39 13.90Q36.90 14.22 36.38 14.22L36.38 14.22L36.38 14.22Q35.63 14.22 35.56 13.18L35.56 13.18L35.56 13.18Q35.55 12.90 35.55 12.63L35.55 12.63L35.55 5.32L35.55 5.32Q35.55 4.38 35.12 4.10L35.12 4.10L35.12 4.10Q34.95 3.98 34.78 3.98L34.78 3.98L34.78 3.98Q34.56 3.98 34.49 3.99L34.49 3.99L34.49 3.99Q34.41 4.00 34.36 4.01L34.36 4.01L34.36 4.01Q35.34 3.32 35.60 3.19L35.60 3.19L35.60 3.19Q35.94 3.00 36.31 2.82L36.31 2.82L36.31 2.82Q36.67 2.64 36.87 2.54L36.87 2.54L36.87 11.97L36.87 11.97Q36.87 12.25 36.88 12.49L36.88 12.49L36.88 12.49Q36.88 12.73 36.96 12.91L36.96 12.91L36.96 12.91Q37.13 13.28 37.82 13.28L37.82 13.28L37.82 13.28Q38.04 13.28 38.24 13.23ZM43.91 12.82L43.91 12.82L43.91 12.82Q42.98 13.86 41.59 14.12L41.59 14.12L41.59 14.12Q41.27 14.18 40.80 14.18L40.80 14.18L40.80 14.18Q40.33 14.18 39.91 13.91L39.91 13.91L39.91 13.91Q39.49 13.65 39.22 13.23L39.22 13.23L39.22 13.23Q38.72 12.43 38.72 11.27L38.72 11.27L38.72 11.27Q38.72 10.50 39.31 9.57L39.31 9.57L39.31 9.57Q39.88 8.65 40.71 8.04L40.71 8.04L40.71 8.04Q41.60 7.38 42.39 7.38L42.39 7.38L42.39 7.38Q42.80 7.38 43.08 7.68L43.08 7.68L43.08 7.68Q43.34 7.98 43.34 8.35L43.34 8.35L43.34 8.35Q43.34 8.73 43.18 9.05L43.18 9.05L43.18 9.05Q43.01 9.37 42.75 9.67L42.75 9.67L42.75 9.67Q42.49 9.97 42.15 10.24L42.15 10.24L42.15 10.24Q41.81 10.52 41.45 10.76L41.45 10.76L41.45 10.76Q40.95 11.10 40.20 11.53L40.20 11.53L40.20 11.53Q40.41 12.36 40.97 12.81L40.97 12.81L40.97 12.81Q41.52 13.25 42.40 13.25L42.40 13.25L42.40 13.25Q43.13 13.25 43.91 12.82ZM41.85 10.08L41.85 10.08L41.85 10.08Q42.03 9.78 42.03 9.50L42.03 9.50L42.03 9.50Q42.03 9.22 41.97 9.03L41.97 9.03L41.97 9.03Q41.91 8.83 41.79 8.68L41.79 8.68L41.79 8.68Q41.53 8.34 41.10 8.34L41.10 8.34L41.10 8.34Q40.07 8.34 40.07 10.46L40.07 10.46L40.07 10.46Q40.07 10.83 40.13 11.20L40.13 11.20L40.13 11.20Q41.33 10.87 41.85 10.08ZM50.82 7.44L50.82 7.44L50.82 7.44Q49.99 8.65 48.82 8.65L48.82 8.65L48.82 8.65Q48.62 8.65 48.32 8.50L48.32 8.50L48.32 8.50Q47.75 8.22 47.55 8.22L47.55 8.22L47.55 8.22Q47.35 8.22 47.22 8.35L47.22 8.35L47.22 8.35Q47.10 8.48 47.02 8.71L47.02 8.71L47.02 8.71Q46.83 9.21 46.83 10.02L46.83 10.02L46.83 12.64L46.83 12.64Q46.83 13.08 47.10 13.23L47.10 13.23L47.10 13.23Q47.20 13.30 47.34 13.30L47.34 13.30L47.34 13.30Q47.48 13.30 47.64 13.23L47.64 13.23L47.64 13.23Q47.50 13.35 47.37 13.52L47.37 13.52L47.37 13.52Q47.24 13.69 47.08 13.84L47.08 13.84L47.08 13.84Q46.69 14.22 46.16 14.22L46.16 14.22L46.16 14.22Q45.88 14.22 45.69 14.04L45.69 14.04L45.69 14.04Q45.50 13.87 45.50 13.62L45.50 13.62L45.50 9.68L45.50 9.68Q45.50 9.44 45.51 9.20L45.51 9.20L45.51 9.20Q45.51 8.96 45.46 8.76L45.46 8.76L45.46 8.76Q45.33 8.33 44.71 8.33L44.71 8.33L44.71 8.33Q44.42 8.33 44.13 8.44L44.13 8.44L44.13 8.44Q44.30 8.38 44.58 8.12L44.58 8.12L44.58 8.12Q45.13 7.63 45.34 7.55L45.34 7.55L45.34 7.55Q45.78 7.39 46.05 7.39L46.05 7.39L46.05 7.39Q46.32 7.39 46.47 7.47L46.47 7.47L46.47 7.47Q46.61 7.55 46.70 7.68L46.70 7.68L46.70 7.68Q46.83 7.91 46.83 8.38L46.83 8.38L46.83 8.38Q47.03 8.23 47.27 8.04L47.27 8.04L47.27 8.04Q47.50 7.85 47.76 7.68L47.76 7.68L47.76 7.68Q48.36 7.28 48.82 7.28L48.82 7.28L48.82 7.28Q49.08 7.28 49.38 7.43L49.38 7.43L49.38 7.43Q49.67 7.58 49.81 7.65L49.81 7.65L49.81 7.65Q49.96 7.72 50.08 7.72L50.08 7.72L50.08 7.72Q50.35 7.72 50.82 7.44ZM55.21 9.28L55.21 12.06L55.20 12.54L55.20 12.54Q55.20 13.07 55.50 13.21L55.50 13.21L55.50 13.21Q55.62 13.27 55.77 13.27L55.77 13.27L55.77 13.27Q56.01 13.27 56.26 13.16L56.26 13.16L56.26 13.16Q56 13.27 55.81 13.45L55.81 13.45L55.81 13.45Q55.62 13.62 55.42 13.79L55.42 13.79L55.42 13.79Q54.93 14.21 54.43 14.21L54.43 14.21L54.43 14.21Q53.93 14.21 53.89 13.63L53.89 13.63L53.89 13.63Q53.88 13.48 53.88 13.33L53.88 13.33L53.88 13.33Q52.65 14.18 51.63 14.18L51.63 14.18L51.63 14.18Q50.76 14.18 50.42 13.66L50.42 13.66L50.42 13.66Q50.30 13.47 50.30 13.13L50.30 13.13L50.30 13.13Q50.30 12.80 50.50 12.46L50.50 12.46L50.50 12.46Q50.71 12.12 51.02 11.84L51.02 11.84L51.02 11.84Q51.58 11.32 52.38 10.99L52.38 10.99L52.38 10.99Q52.96 10.73 53.89 10.70L53.89 10.70L53.89 10.40L53.89 10.40Q53.89 9.31 53.69 8.93L53.69 8.93L53.69 8.93Q53.49 8.54 53.18 8.36L53.18 8.36L53.18 8.36Q52.86 8.18 52.44 8.18L52.44 8.18L52.44 8.18Q51.72 8.18 51.17 8.46L51.17 8.46L51.17 8.46Q51.93 7.84 52.27 7.64L52.27 7.64L52.27 7.64Q52.99 7.24 53.58 7.24L53.58 7.24L53.58 7.24Q54.16 7.24 54.46 7.41L54.46 7.41L54.46 7.41Q54.75 7.58 54.92 7.86L54.92 7.86L54.92 7.86Q55.21 8.35 55.21 9.28L55.21 9.28ZM52.00 13.04L52.00 13.04L52.00 13.04Q52.17 13.16 52.38 13.21L52.38 13.21L52.38 13.21Q52.60 13.27 53.03 13.27L53.03 13.27L53.03 13.27Q53.46 13.27 53.89 13.06L53.89 13.06L53.89 11.63L52.78 11.63L52.78 11.63Q52.19 11.63 51.74 11.71L51.74 11.71L51.74 11.71Q51.65 12.00 51.65 12.27L51.65 12.27L51.65 12.27Q51.65 12.54 51.74 12.73L51.74 12.73L51.74 12.73Q51.84 12.92 52.00 13.04ZM57.63 8.16L56.75 8.16L57.63 7.46L57.63 6.49L57.63 6.49Q58.00 6.23 58.16 6.09L58.16 6.09L58.16 6.09Q58.32 5.95 58.43 5.89L58.43 5.89L58.43 5.89Q58.54 5.83 58.65 5.76L58.65 5.76L58.65 5.76Q58.95 5.59 58.97 5.56L58.97 5.56L58.97 7.23L61.15 7.23L61.15 7.23Q61.07 7.23 60.70 7.55L60.70 7.55L60.70 7.55Q60.01 8.16 59.83 8.16L59.83 8.16L58.97 8.16L58.97 11.82L58.97 11.82Q58.97 13.08 59.69 13.28L59.69 13.28L59.69 13.28Q59.91 13.33 60.10 13.33L60.10 13.33L60.10 13.33Q60.42 13.33 60.63 13.24L60.63 13.24L60.63 13.24Q60.85 13.15 61.00 13.07L61.00 13.07L61.00 13.07Q60.58 13.71 59.83 14.04L59.83 14.04L59.83 14.04Q59.44 14.21 58.99 14.21L58.99 14.21L58.99 14.21Q58.54 14.21 58.30 14.05L58.30 14.05L58.30 14.05Q58.05 13.90 57.90 13.64L57.90 13.64L57.90 13.64Q57.63 13.18 57.63 12.41L57.63 12.41L57.63 8.16ZM67.29 7.86L67.29 7.86Q67.76 7.59 68.29 7.45L68.29 7.45L68.29 7.45Q68.82 7.30 69.18 7.30L69.18 7.30L69.18 7.30Q69.54 7.30 69.82 7.35L69.82 7.35L69.82 5.11L69.82 5.11Q69.82 4.38 69.55 4.14L69.55 4.14L69.55 4.14Q69.43 4.03 69.25 4.03L69.25 4.03L69.25 4.03Q69.04 4.03 68.63 4.13L68.63 4.13L68.63 4.13Q70.34 2.82 71.14 2.41L71.14 2.41L71.14 12.19L71.14 12.19Q71.14 12.74 71.26 12.92L71.26 12.92L71.26 12.92Q71.46 13.26 71.97 13.26L71.97 13.26L71.97 13.26Q72.17 13.26 72.37 13.22L72.37 13.22L72.37 13.22Q72.17 13.38 71.98 13.55L71.98 13.55L71.98 13.55Q71.78 13.72 71.57 13.86L71.57 13.86L71.57 13.86Q71.09 14.19 70.72 14.19L70.72 14.19L70.72 14.19Q70.35 14.19 70.19 14.12L70.19 14.12L70.19 14.12Q70.03 14.05 69.94 13.92L69.94 13.92L69.94 13.92Q69.80 13.73 69.80 13.18L69.80 13.18L69.80 13.18Q68.40 14.22 67.55 14.22L67.55 14.22L67.55 14.22Q66.30 14.22 65.64 13.38L65.64 13.38L65.64 13.38Q65.02 12.62 65.02 11.33L65.02 11.33L65.02 11.33Q65.02 10.28 65.68 9.32L65.68 9.32L65.68 9.32Q66.29 8.42 67.29 7.86L67.29 7.86ZM69.82 12.60L69.82 9.21L69.82 9.21Q69.51 8.72 69.02 8.47L69.02 8.47L69.02 8.47Q68.52 8.22 67.99 8.22L67.99 8.22L67.99 8.22Q67.46 8.22 67.14 8.40L67.14 8.40L67.14 8.40Q66.83 8.58 66.65 8.88L66.65 8.88L66.65 8.88Q66.34 9.40 66.34 10.18L66.34 10.18L66.34 10.18Q66.34 10.96 66.48 11.49L66.48 11.49L66.48 11.49Q66.62 12.02 66.91 12.43L66.91 12.43L66.91 12.43Q67.55 13.30 68.79 13.30L68.79 13.30L68.79 13.30Q69.06 13.30 69.32 13.14L69.32 13.14L69.32 13.14Q69.82 12.85 69.82 12.60L69.82 12.60ZM78.23 12.82L78.23 12.82L78.23 12.82Q77.29 13.86 75.91 14.12L75.91 14.12L75.91 14.12Q75.58 14.18 75.11 14.18L75.11 14.18L75.11 14.18Q74.64 14.18 74.22 13.91L74.22 13.91L74.22 13.91Q73.81 13.65 73.54 13.23L73.54 13.23L73.54 13.23Q73.04 12.43 73.04 11.27L73.04 11.27L73.04 11.27Q73.04 10.50 73.62 9.57L73.62 9.57L73.62 9.57Q74.20 8.65 75.02 8.04L75.02 8.04L75.02 8.04Q75.91 7.38 76.71 7.38L76.71 7.38L76.71 7.38Q77.12 7.38 77.40 7.68L77.40 7.68L77.40 7.68Q77.66 7.98 77.66 8.35L77.66 8.35L77.66 8.35Q77.66 8.73 77.49 9.05L77.49 9.05L77.49 9.05Q77.33 9.37 77.06 9.67L77.06 9.67L77.06 9.67Q76.80 9.97 76.46 10.24L76.46 10.24L76.46 10.24Q76.13 10.52 75.77 10.76L75.77 10.76L75.77 10.76Q75.27 11.10 74.51 11.53L74.51 11.53L74.51 11.53Q74.73 12.36 75.28 12.81L75.28 12.81L75.28 12.81Q75.84 13.25 76.71 13.25L76.71 13.25L76.71 13.25Q77.45 13.25 78.23 12.82ZM76.17 10.08L76.17 10.08L76.17 10.08Q76.35 9.78 76.35 9.50L76.35 9.50L76.35 9.50Q76.35 9.22 76.29 9.03L76.29 9.03L76.29 9.03Q76.23 8.83 76.11 8.68L76.11 8.68L76.11 8.68Q75.84 8.34 75.42 8.34L75.42 8.34L75.42 8.34Q74.38 8.34 74.38 10.46L74.38 10.46L74.38 10.46Q74.38 10.83 74.44 11.20L74.44 11.20L74.44 11.20Q75.65 10.87 76.17 10.08ZM85.33 4.25L85.33 4.25L86.69 4.24L86.69 4.24Q87.83 4.24 88.39 4.57L88.39 4.57L88.39 4.57Q89.11 5.00 89.11 6.06L89.11 6.06L89.11 6.06Q89.11 7.04 87.98 7.87L87.98 7.87L87.98 7.87Q87.66 8.09 87.37 8.30L87.37 8.30L87.37 8.30Q89.02 8.48 89.55 9.65L89.55 9.65L89.55 9.65Q89.74 10.06 89.74 10.53L89.74 10.53L89.74 10.53Q89.74 11.00 89.57 11.38L89.57 11.38L89.57 11.38Q89.39 11.75 89.10 12.10L89.10 12.10L89.10 12.10Q88.81 12.44 88.44 12.75L88.44 12.75L88.44 12.75Q88.07 13.06 87.67 13.30L87.67 13.30L87.67 13.30Q86.58 13.97 85.75 14.03L85.75 14.03L85.75 14.03Q85.16 14.08 84.71 14.08L84.71 14.08L83.17 14.08L83.17 14.08Q83.47 13.66 83.54 13.47L83.54 13.47L83.54 13.47Q83.63 13.18 83.63 12.67L83.63 12.67L83.63 5.17L82.13 5.17L82.13 5.17Q83.21 4.25 83.45 4.25L83.45 4.25L83.45 4.25Q84.40 4.25 85.33 4.25ZM84.96 5.14L84.96 8.31L84.96 8.31Q85.39 8.29 86.03 8.29L86.03 8.29L86.03 8.29Q86.67 8.29 86.96 8.31L86.96 8.31L86.96 8.31Q87.64 8.09 87.76 7.49L87.76 7.49L87.76 7.49Q87.79 7.28 87.79 7.01L87.79 7.01L87.79 7.01Q87.79 5.13 85.44 5.13L85.44 5.13L85.44 5.13Q85.19 5.13 84.96 5.14L84.96 5.14ZM84.96 9.21L84.96 11.71L84.96 11.71Q84.96 12.50 84.52 13.15L84.52 13.15L86.43 13.15L86.43 13.15Q87.23 13.15 87.61 12.93L87.61 12.93L87.61 12.93Q87.99 12.71 88.19 12.39L88.19 12.39L88.19 12.39Q88.39 12.07 88.39 11.55L88.39 11.55L88.39 11.55Q88.39 11.02 88.25 10.64L88.25 10.64L88.25 10.64Q88.10 10.27 87.86 10.01L87.86 10.01L87.86 10.01Q87.61 9.75 87.27 9.59L87.27 9.59L87.27 9.59Q86.94 9.43 86.56 9.35L86.56 9.35L86.56 9.35Q85.93 9.21 84.96 9.21L84.96 9.21ZM96.07 12.82L96.07 12.82L96.07 12.82Q95.13 13.86 93.74 14.12L93.74 14.12L93.74 14.12Q93.42 14.18 92.95 14.18L92.95 14.18L92.95 14.18Q92.48 14.18 92.06 13.91L92.06 13.91L92.06 13.91Q91.64 13.65 91.38 13.23L91.38 13.23L91.38 13.23Q90.87 12.43 90.87 11.27L90.87 11.27L90.87 11.27Q90.87 10.50 91.46 9.57L91.46 9.57L91.46 9.57Q92.03 8.65 92.86 8.04L92.86 8.04L92.86 8.04Q93.75 7.38 94.54 7.38L94.54 7.38L94.54 7.38Q94.95 7.38 95.23 7.68L95.23 7.68L95.23 7.68Q95.49 7.98 95.49 8.35L95.49 8.35L95.49 8.35Q95.49 8.73 95.33 9.05L95.33 9.05L95.33 9.05Q95.16 9.37 94.90 9.67L94.90 9.67L94.90 9.67Q94.64 9.97 94.30 10.24L94.30 10.24L94.30 10.24Q93.96 10.52 93.60 10.76L93.60 10.76L93.60 10.76Q93.11 11.10 92.35 11.53L92.35 11.53L92.35 11.53Q92.57 12.36 93.12 12.81L93.12 12.81L93.12 12.81Q93.67 13.25 94.55 13.25L94.55 13.25L94.55 13.25Q95.29 13.25 96.07 12.82ZM94.00 10.08L94.00 10.08L94.00 10.08Q94.19 9.78 94.19 9.50L94.19 9.50L94.19 9.50Q94.19 9.22 94.12 9.03L94.12 9.03L94.12 9.03Q94.06 8.83 93.95 8.68L93.95 8.68L93.95 8.68Q93.68 8.34 93.26 8.34L93.26 8.34L93.26 8.34Q92.22 8.34 92.22 10.46L92.22 10.46L92.22 10.46Q92.22 10.83 92.28 11.20L92.28 11.20L92.28 11.20Q93.48 10.87 94.00 10.08ZM100.14 13.23L100.14 13.23L100.14 13.23Q99.91 13.41 99.71 13.59L99.71 13.59L99.71 13.59Q99.50 13.77 99.29 13.90L99.29 13.90L99.29 13.90Q98.80 14.22 98.28 14.22L98.28 14.22L98.28 14.22Q97.53 14.22 97.46 13.18L97.46 13.18L97.46 13.18Q97.45 12.90 97.45 12.63L97.45 12.63L97.45 5.32L97.45 5.32Q97.45 4.38 97.02 4.10L97.02 4.10L97.02 4.10Q96.84 3.98 96.68 3.98L96.68 3.98L96.68 3.98Q96.46 3.98 96.39 3.99L96.39 3.99L96.39 3.99Q96.31 4.00 96.26 4.01L96.26 4.01L96.26 4.01Q97.24 3.32 97.50 3.19L97.50 3.19L97.50 3.19Q97.84 3.00 98.21 2.82L98.21 2.82L98.21 2.82Q98.57 2.64 98.77 2.54L98.77 2.54L98.77 11.97L98.77 11.97Q98.77 12.25 98.78 12.49L98.78 12.49L98.78 12.49Q98.78 12.73 98.85 12.91L98.85 12.91L98.85 12.91Q99.03 13.28 99.72 13.28L99.72 13.28L99.72 13.28Q99.93 13.28 100.14 13.23ZM103.91 13.23L103.91 13.23L103.91 13.23Q103.69 13.41 103.48 13.59L103.48 13.59L103.48 13.59Q103.28 13.77 103.06 13.90L103.06 13.90L103.06 13.90Q102.57 14.22 102.05 14.22L102.05 14.22L102.05 14.22Q101.30 14.22 101.23 13.18L101.23 13.18L101.23 13.18Q101.22 12.90 101.22 12.63L101.22 12.63L101.22 5.32L101.22 5.32Q101.22 4.38 100.80 4.10L100.80 4.10L100.80 4.10Q100.62 3.98 100.45 3.98L100.45 3.98L100.45 3.98Q100.24 3.98 100.16 3.99L100.16 3.99L100.16 3.99Q100.08 4.00 100.03 4.01L100.03 4.01L100.03 4.01Q101.01 3.32 101.27 3.19L101.27 3.19L101.27 3.19Q101.62 3.00 101.98 2.82L101.98 2.82L101.98 2.82Q102.35 2.64 102.55 2.54L102.55 2.54L102.55 11.97L102.55 11.97Q102.55 12.25 102.55 12.49L102.55 12.49L102.55 12.49Q102.55 12.73 102.63 12.91L102.63 12.91L102.63 12.91Q102.80 13.28 103.49 13.28L103.49 13.28L103.49 13.28Q103.71 13.28 103.91 13.23ZM109.59 12.82L109.59 12.82L109.59 12.82Q108.65 13.86 107.26 14.12L107.26 14.12L107.26 14.12Q106.94 14.18 106.47 14.18L106.47 14.18L106.47 14.18Q106.00 14.18 105.58 13.91L105.58 13.91L105.58 13.91Q105.16 13.65 104.90 13.23L104.90 13.23L104.90 13.23Q104.39 12.43 104.39 11.27L104.39 11.27L104.39 11.27Q104.39 10.50 104.98 9.57L104.98 9.57L104.98 9.57Q105.55 8.65 106.38 8.04L106.38 8.04L106.38 8.04Q107.27 7.38 108.06 7.38L108.06 7.38L108.06 7.38Q108.47 7.38 108.75 7.68L108.75 7.68L108.75 7.68Q109.01 7.98 109.01 8.35L109.01 8.35L109.01 8.35Q109.01 8.73 108.85 9.05L108.85 9.05L108.85 9.05Q108.68 9.37 108.42 9.67L108.42 9.67L108.42 9.67Q108.16 9.97 107.82 10.24L107.82 10.24L107.82 10.24Q107.48 10.52 107.13 10.76L107.13 10.76L107.13 10.76Q106.63 11.10 105.87 11.53L105.87 11.53L105.87 11.53Q106.09 12.36 106.64 12.81L106.64 12.81L106.64 12.81Q107.19 13.25 108.07 13.25L108.07 13.25L108.07 13.25Q108.81 13.25 109.59 12.82ZM107.52 10.08L107.52 10.08L107.52 10.08Q107.71 9.78 107.71 9.50L107.71 9.50L107.71 9.50Q107.71 9.22 107.65 9.03L107.65 9.03L107.65 9.03Q107.58 8.83 107.47 8.68L107.47 8.68L107.47 8.68Q107.20 8.34 106.78 8.34L106.78 8.34L106.78 8.34Q105.74 8.34 105.74 10.46L105.74 10.46L105.74 10.46Q105.74 10.83 105.80 11.20L105.80 11.20L105.80 11.20Q107.00 10.87 107.52 10.08ZM113.36 8.78L113.36 8.78L113.36 8.78Q113.49 8.68 113.49 8.57L113.49 8.57L113.49 8.57Q113.49 8.46 113.36 8.40L113.36 8.40L113.36 8.40Q113.23 8.34 113.06 8.31L113.06 8.31L113.06 8.31Q112.79 8.25 112.56 8.25L112.56 8.25L112.56 8.25Q112.33 8.25 112.21 8.27L112.21 8.27L112.21 8.27Q112.08 8.30 111.99 8.36L111.99 8.36L111.99 8.36Q111.80 8.49 111.80 8.82L111.80 8.82L111.80 8.82Q111.80 9.15 111.95 9.35L111.95 9.35L111.95 9.35Q112.09 9.56 112.32 9.71L112.32 9.71L112.32 9.71Q112.56 9.85 112.86 9.95L112.86 9.95L112.86 9.95Q113.16 10.04 113.47 10.13L113.47 10.13L113.47 10.13Q113.78 10.23 114.08 10.34L114.08 10.34L114.08 10.34Q114.39 10.45 114.62 10.62L114.62 10.62L114.62 10.62Q115.14 11.01 115.14 11.68L115.14 11.68L115.14 11.68Q115.14 12.34 114.51 12.97L114.51 12.97L114.51 12.97Q113.97 13.51 113.09 13.89L113.09 13.89L113.09 13.89Q112.27 14.25 111.62 14.25L111.62 14.25L111.62 14.25Q110.84 14.25 110.37 13.92L110.37 13.92L110.37 13.92Q110.20 13.79 110.20 13.60L110.20 13.60L110.20 13.60Q110.20 13.41 110.38 13.24L110.38 13.24L110.38 13.24Q110.56 13.08 110.80 12.94L110.80 12.94L110.80 12.94Q111.04 12.80 111.28 12.68L111.28 12.68L111.28 12.68Q111.51 12.55 111.64 12.41L111.64 12.41L111.64 12.41Q111.51 12.54 111.51 12.71L111.51 12.71L111.51 12.71Q111.51 12.89 111.71 13.01L111.71 13.01L111.71 13.01Q111.90 13.13 112.16 13.19L112.16 13.19L112.16 13.19Q112.61 13.30 113.03 13.30L113.03 13.30L113.03 13.30Q113.44 13.30 113.63 13.15L113.63 13.15L113.63 13.15Q113.82 13.00 113.82 12.63L113.82 12.63L113.82 12.63Q113.82 12.27 113.67 12.04L113.67 12.04L113.67 12.04Q113.53 11.81 113.30 11.65L113.30 11.65L113.30 11.65Q113.07 11.48 112.77 11.37L112.77 11.37L112.77 11.37Q112.46 11.26 112.15 11.15L112.15 11.15L112.15 11.15Q111.84 11.05 111.54 10.94L111.54 10.94L111.54 10.94Q111.24 10.83 111.01 10.67L111.01 10.67L111.01 10.67Q110.49 10.32 110.49 9.76L110.49 9.76L110.49 9.76Q110.49 9.23 111.12 8.62L111.12 8.62L111.12 8.62Q111.67 8.10 112.26 7.81L112.26 7.81L112.26 7.81Q113.28 7.31 113.80 7.31L113.80 7.31L113.80 7.31Q114.34 7.31 114.58 7.43L114.58 7.43L114.58 7.43Q114.82 7.55 114.82 7.63L114.82 7.63L114.82 7.63Q114.82 7.72 114.76 7.79L114.76 7.79L114.76 7.79Q114.71 7.85 114.63 7.91L114.63 7.91L114.63 7.91Q114.55 7.97 114.47 8.02L114.47 8.02L114.47 8.02Q114.39 8.07 114.24 8.16L114.24 8.16L114.24 8.16Q114.08 8.26 113.83 8.42L113.83 8.42L113.83 8.42Q113.58 8.58 113.36 8.78ZM120.08 13.16L120.08 13.16L120.08 13.16Q120.13 13.15 120.63 13.15L120.63 13.15L120.63 13.15Q121.48 13.15 121.89 13.02L121.89 13.02L121.89 13.02Q122.29 12.89 122.47 12.78L122.47 12.78L122.47 12.78Q122.22 12.97 122.01 13.14L122.01 13.14L122.01 13.14Q121.55 13.49 121.27 13.65L121.27 13.65L121.27 13.65Q121.00 13.81 120.72 13.89L120.72 13.89L120.72 13.89Q120.45 13.98 120.16 14.02L120.16 14.02L120.16 14.02Q119.74 14.08 119.01 14.08L119.01 14.08L118.74 14.08L118.74 14.08Q118.75 14.08 118.75 14.07L118.75 14.07L118.75 14.07Q118.75 14.06 118.85 13.96L118.85 13.96L118.85 13.96Q118.94 13.86 119.12 13.66L119.12 13.66L119.12 13.66Q119.29 13.47 119.59 13.08L119.59 13.08L119.59 13.08Q119.88 12.69 120.23 12.07L120.23 12.07L120.23 12.07Q120.57 11.46 120.87 10.82L120.87 10.82L120.87 10.82Q121.17 10.18 121.44 9.52L121.44 9.52L121.44 9.52Q121.71 8.87 122.00 8.21L122.00 8.21L122.00 8.21Q122.29 7.55 122.60 6.87L122.60 6.87L122.60 6.87Q122.90 6.20 123.05 5.82L123.05 5.82L123.05 5.82Q123.20 5.43 123.23 5.34L123.23 5.34L123.23 5.34Q123.25 5.24 123.31 5.17L123.31 5.17L122.79 5.17L122.79 5.17Q121.52 5.17 120.81 5.46L120.81 5.46L120.81 5.46Q121.75 4.64 122.39 4.43L122.39 4.43L122.39 4.43Q122.97 4.25 124.28 4.25L124.28 4.25L124.64 4.25L124.64 4.25Q124.93 5.22 125.23 6.23L125.23 6.23L125.23 6.23Q125.53 7.23 125.83 8.24L125.83 8.24L125.83 8.24Q126.49 10.42 126.82 11.41L126.82 11.41L126.82 11.41Q127.15 12.39 127.21 12.58L127.21 12.58L127.21 12.58Q127.26 12.77 127.35 12.92L127.35 12.92L127.35 12.92Q127.55 13.25 127.99 13.25L127.99 13.25L127.99 13.25Q128.23 13.25 128.49 13.14L128.49 13.14L128.49 13.14Q128.75 13.03 128.90 12.94L128.90 12.94L128.90 12.94Q128.65 13.13 128.46 13.28L128.46 13.28L128.46 13.28Q127.97 13.65 127.83 13.74L127.83 13.74L127.83 13.74Q127.70 13.82 127.56 13.90L127.56 13.90L127.56 13.90Q127.42 13.99 127.27 14.05L127.27 14.05L127.27 14.05Q126.31 14.48 125.98 13.73L125.98 13.73L125.98 13.73Q125.74 13.21 125.41 12.05L125.41 12.05L125.41 12.05Q125.07 10.89 124.81 10.08L124.81 10.08L124.81 10.08Q124.24 10.49 122.31 10.46L122.31 10.46L122.31 10.46Q122.06 10.46 121.88 10.46L121.88 10.46L121.88 10.46Q121.11 12.00 120.38 12.82L120.38 12.82L120.38 12.82Q120.32 12.89 120.26 12.96L120.26 12.96L120.26 12.96Q120.08 13.17 120.08 13.16ZM122.42 9.51L122.42 9.51L123.77 9.54L123.77 9.54Q124.20 9.54 124.63 9.51L124.63 9.51L124.63 9.51Q124.32 8.51 123.70 6.45L123.70 6.45L123.70 6.45Q123.02 8.00 122.32 9.53L122.32 9.53L122.32 9.53Q122.40 9.51 122.42 9.51ZM135.19 7.44L135.19 7.44L135.19 7.44Q134.37 8.65 133.19 8.65L133.19 8.65L133.19 8.65Q133 8.65 132.70 8.50L132.70 8.50L132.70 8.50Q132.13 8.22 131.92 8.22L131.92 8.22L131.92 8.22Q131.72 8.22 131.60 8.35L131.60 8.35L131.60 8.35Q131.48 8.48 131.39 8.71L131.39 8.71L131.39 8.71Q131.21 9.21 131.21 10.02L131.21 10.02L131.21 12.64L131.21 12.64Q131.21 13.08 131.48 13.23L131.48 13.23L131.48 13.23Q131.57 13.30 131.71 13.30L131.71 13.30L131.71 13.30Q131.86 13.30 132.02 13.23L132.02 13.23L132.02 13.23Q131.88 13.35 131.75 13.52L131.75 13.52L131.75 13.52Q131.62 13.69 131.46 13.84L131.46 13.84L131.46 13.84Q131.07 14.22 130.53 14.22L130.53 14.22L130.53 14.22Q130.26 14.22 130.07 14.04L130.07 14.04L130.07 14.04Q129.88 13.87 129.88 13.62L129.88 13.62L129.88 9.68L129.88 9.68Q129.88 9.44 129.88 9.20L129.88 9.20L129.88 9.20Q129.89 8.96 129.83 8.76L129.83 8.76L129.83 8.76Q129.71 8.33 129.09 8.33L129.09 8.33L129.09 8.33Q128.80 8.33 128.50 8.44L128.50 8.44L128.50 8.44Q128.68 8.38 128.96 8.12L128.96 8.12L128.96 8.12Q129.51 7.63 129.72 7.55L129.72 7.55L129.72 7.55Q130.16 7.39 130.43 7.39L130.43 7.39L130.43 7.39Q130.70 7.39 130.84 7.47L130.84 7.47L130.84 7.47Q130.99 7.55 131.07 7.68L131.07 7.68L131.07 7.68Q131.21 7.91 131.21 8.38L131.21 8.38L131.21 8.38Q131.41 8.23 131.64 8.04L131.64 8.04L131.64 8.04Q131.88 7.85 132.13 7.68L132.13 7.68L132.13 7.68Q132.74 7.28 133.19 7.28L133.19 7.28L133.19 7.28Q133.46 7.28 133.75 7.43L133.75 7.43L133.75 7.43Q134.05 7.58 134.19 7.65L134.19 7.65L134.19 7.65Q134.33 7.72 134.46 7.72L134.46 7.72L134.46 7.72Q134.73 7.72 135.19 7.44ZM135.82 8.16L134.93 8.16L135.82 7.46L135.82 6.49L135.82 6.49Q136.19 6.23 136.34 6.09L136.34 6.09L136.34 6.09Q136.50 5.95 136.61 5.89L136.61 5.89L136.61 5.89Q136.72 5.83 136.83 5.76L136.83 5.76L136.83 5.76Q137.13 5.59 137.15 5.56L137.15 5.56L137.15 7.23L139.34 7.23L139.34 7.23Q139.25 7.23 138.89 7.55L138.89 7.55L138.89 7.55Q138.20 8.16 138.01 8.16L138.01 8.16L137.15 8.16L137.15 11.82L137.15 11.82Q137.15 13.08 137.87 13.28L137.87 13.28L137.87 13.28Q138.09 13.33 138.28 13.33L138.28 13.33L138.28 13.33Q138.60 13.33 138.82 13.24L138.82 13.24L138.82 13.24Q139.04 13.15 139.18 13.07L139.18 13.07L139.18 13.07Q138.76 13.71 138.01 14.04L138.01 14.04L138.01 14.04Q137.62 14.21 137.17 14.21L137.17 14.21L137.17 14.21Q136.73 14.21 136.48 14.05L136.48 14.05L136.48 14.05Q136.23 13.90 136.08 13.64L136.08 13.64L136.08 13.64Q135.82 13.18 135.82 12.41L135.82 12.41L135.82 8.16ZM142.77 8.78L142.77 8.78L142.77 8.78Q142.90 8.68 142.90 8.57L142.90 8.57L142.90 8.57Q142.90 8.46 142.77 8.40L142.77 8.40L142.77 8.40Q142.64 8.34 142.47 8.31L142.47 8.31L142.47 8.31Q142.20 8.25 141.97 8.25L141.97 8.25L141.97 8.25Q141.74 8.25 141.62 8.27L141.62 8.27L141.62 8.27Q141.49 8.30 141.40 8.36L141.40 8.36L141.40 8.36Q141.21 8.49 141.21 8.82L141.21 8.82L141.21 8.82Q141.21 9.15 141.35 9.35L141.35 9.35L141.35 9.35Q141.50 9.56 141.73 9.71L141.73 9.71L141.73 9.71Q141.97 9.85 142.27 9.95L142.27 9.95L142.27 9.95Q142.57 10.04 142.88 10.13L142.88 10.13L142.88 10.13Q143.19 10.23 143.49 10.34L143.49 10.34L143.49 10.34Q143.79 10.45 144.03 10.62L144.03 10.62L144.03 10.62Q144.55 11.01 144.55 11.68L144.55 11.68L144.55 11.68Q144.55 12.34 143.92 12.97L143.92 12.97L143.92 12.97Q143.38 13.51 142.50 13.89L142.50 13.89L142.50 13.89Q141.67 14.25 141.03 14.25L141.03 14.25L141.03 14.25Q140.25 14.25 139.78 13.92L139.78 13.92L139.78 13.92Q139.61 13.79 139.61 13.60L139.61 13.60L139.61 13.60Q139.61 13.41 139.79 13.24L139.79 13.24L139.79 13.24Q139.97 13.08 140.21 12.94L140.21 12.94L140.21 12.94Q140.44 12.80 140.68 12.68L140.68 12.68L140.68 12.68Q140.92 12.55 141.05 12.41L141.05 12.41L141.05 12.41Q140.92 12.54 140.92 12.71L140.92 12.71L140.92 12.71Q140.92 12.89 141.11 13.01L141.11 13.01L141.11 13.01Q141.31 13.13 141.57 13.19L141.57 13.19L141.57 13.19Q142.02 13.30 142.43 13.30L142.43 13.30L142.43 13.30Q142.85 13.30 143.04 13.15L143.04 13.15L143.04 13.15Q143.23 13.00 143.23 12.63L143.23 12.63L143.23 12.63Q143.23 12.27 143.08 12.04L143.08 12.04L143.08 12.04Q142.94 11.81 142.71 11.65L142.71 11.65L142.71 11.65Q142.47 11.48 142.17 11.37L142.17 11.37L142.17 11.37Q141.87 11.26 141.56 11.15L141.56 11.15L141.56 11.15Q141.25 11.05 140.95 10.94L140.95 10.94L140.95 10.94Q140.65 10.83 140.42 10.67L140.42 10.67L140.42 10.67Q139.90 10.32 139.90 9.76L139.90 9.76L139.90 9.76Q139.90 9.23 140.53 8.62L140.53 8.62L140.53 8.62Q141.07 8.10 141.67 7.81L141.67 7.81L141.67 7.81Q142.69 7.31 143.21 7.31L143.21 7.31L143.21 7.31Q143.75 7.31 143.99 7.43L143.99 7.43L143.99 7.43Q144.22 7.55 144.22 7.63L144.22 7.63L144.22 7.63Q144.22 7.72 144.17 7.79L144.17 7.79L144.17 7.79Q144.12 7.85 144.04 7.91L144.04 7.91L144.04 7.91Q143.96 7.97 143.88 8.02L143.88 8.02L143.88 8.02Q143.79 8.07 143.64 8.16L143.64 8.16L143.64 8.16Q143.49 8.26 143.24 8.42L143.24 8.42L143.24 8.42Q142.99 8.58 142.77 8.78Z"></path></g><defs data-v-fde0c5aa=""><linearGradient data-v-fde0c5aa="" gradientTransform="rotate(25)" id="fd832c4b-4882-4f25-8c84-088273396286" x1="0%" y1="0%" x2="100%" y2="0%"><stop data-v-fde0c5aa="" offset="0%" stop-color="#E63500" stop-opacity="1"></stop><stop data-v-fde0c5aa="" offset="100%" stop-color="#FFC316" stop-opacity="1"></stop></linearGradient></defs><g data-v-fde0c5aa="" id="5bdd6834-4e39-496e-8349-97cba0620b44" stroke="none" fill="url(#fd832c4b-4882-4f25-8c84-088273396286)" transform="matrix(1.3329638863863984,0,0,1.3329638863863984,128.67257781781763,109.00886672672644)"><path d="M11.579 32H32L21.789 14.314z"></path><circle cx="8.683" cy="8.683" r="8.683"></circle></g><!----></svg>